<svg xmlns="http://www.w3.org/2000/svg" style="display:none" aria-hidden="true">
  <defs>
    <symbol id="icon-menu" viewBox="0 0 24 24">
      <path d="M4 5h16"></path>
      <path d="M4 12h16"></path>
      <path d="M4 19h16"></path>
    </symbol>
    <symbol id="icon-chevron-left" viewBox="0 0 24 24">
      <path d="m15 18-6-6 6-6"></path>
    </symbol>
    <symbol id="icon-chevron-right" viewBox="0 0 24 24">
      <path d="m9 18 6-6-6-6"></path>
    </symbol>
    <symbol id="icon-refresh-cw" viewBox="0 0 24 24">
      <path d="M3 12a9 9 0 0 1 9-9 9.75 9.75 0 0 1 6.74 2.74L21 8"></path>
      <path d="M21 3v5h-5"></path>
      <path d="M21 12a9 9 0 0 1-9 9 9.75 9.75 0 0 1-6.74-2.74L3 16"></path>
      <path d="M8 16H3v5"></path>
    </symbol>
    <symbol id="icon-minus" viewBox="0 0 24 24">
      <path d="M5 12h14"></path>
    </symbol>
    <symbol id="icon-maximize" viewBox="0 0 24 24">
      <path d="M8 3H5a2 2 0 0 0-2 2v3"></path>
      <path d="M21 8V5a2 2 0 0 0-2-2h-3"></path>
      <path d="M3 16v3a2 2 0 0 0 2 2h3"></path>
      <path d="M16 21h3a2 2 0 0 0 2-2v-3"></path>
    </symbol>
    <symbol id="icon-x" viewBox="0 0 24 24">
      <path d="M18 6 6 18"></path>
      <path d="m6 6 12 12"></path>
    </symbol>
    <symbol id="icon-plus" viewBox="0 0 24 24">
      <path d="M5 12h14"></path>
      <path d="M12 5v14"></path>
    </symbol>
    <symbol id="icon-folder-plus" viewBox="0 0 24 24">
      <path d="M12 10v6"></path>
      <path d="M9 13h6"></path>
      <path d="M20 20a2 2 0 0 0 2-2V8a2 2 0 0 0-2-2h-7.9a2 2 0 0 1-1.69-.9L9.6 3.9A2 2 0 0 0 7.93 3H4a2 2 0 0 0-2 2v13a2 2 0 0 0 2 2Z"></path>
    </symbol>
    <symbol id="icon-file" viewBox="0 0 24 24">
      <path d="M6 22a2 2 0 0 1-2-2V4a2 2 0 0 1 2-2h8a2.4 2.4 0 0 1 1.704.706l3.588 3.588A2.4 2.4 0 0 1 20 8v12a2 2 0 0 1-2 2z"></path>
      <path d="M14 2v5a1 1 0 0 0 1 1h5"></path>
    </symbol>
    <symbol id="icon-settings" viewBox="0 0 24 24">
      <path d="M9.671 4.136a2.34 2.34 0 0 1 4.659 0 2.34 2.34 0 0 0 3.319 1.915 2.34 2.34 0 0 1 2.33 4.033 2.34 2.34 0 0 0 0 3.831 2.34 2.34 0 0 1-2.33 4.033 2.34 2.34 0 0 0-3.319 1.915 2.34 2.34 0 0 1-4.659 0 2.34 2.34 0 0 0-3.32-1.915 2.34 2.34 0 0 1-2.33-4.033 2.34 2.34 0 0 0 0-3.831A2.34 2.34 0 0 1 6.35 6.051a2.34 2.34 0 0 0 3.319-1.915"></path>
      <circle cx="12" cy="12" r="3"></circle>
    </symbol>
    <symbol id="icon-arrow-left" viewBox="0 0 24 24">
      <path d="m12 19-7-7 7-7"></path>
      <path d="M19 12H5"></path>
    </symbol>
    <symbol id="icon-arrow-right" viewBox="0 0 24 24">
      <path d="M5 12h14"></path>
      <path d="m12 5 7 7-7 7"></path>
    </symbol>
    <symbol id="icon-arrow-left-right" viewBox="0 0 24 24">
      <path d="M8 3 4 7l4 4"></path>
      <path d="M4 7h16"></path>
      <path d="m16 21 4-4-4-4"></path>
      <path d="M20 17H4"></path>
    </symbol>
    <symbol id="icon-play" viewBox="0 0 24 24">
      <path d="M5 5a2 2 0 0 1 3.008-1.728l11.997 6.998a2 2 0 0 1 .003 3.458l-12 7A2 2 0 0 1 5 19z"></path>
    </symbol>
    <symbol id="icon-pause" viewBox="0 0 24 24">
      <rect x="14" y="3" width="5" height="18" rx="1"></rect>
      <rect x="5" y="3" width="5" height="18" rx="1"></rect>
    </symbol>
    <symbol id="icon-files" viewBox="0 0 24 24">
      <path d="M15 2h-4a2 2 0 0 0-2 2v11a2 2 0 0 0 2 2h8a2 2 0 0 0 2-2V8"></path>
      <path d="M16.706 2.706A2.4 2.4 0 0 0 15 2v5a1 1 0 0 0 1 1h5a2.4 2.4 0 0 0-.706-1.706z"></path>
      <path d="M5 7a2 2 0 0 0-2 2v11a2 2 0 0 0 2 2h8a2 2 0 0 0 1.732-1"></path>
    </symbol>
    <symbol id="icon-search" viewBox="0 0 24 24">
      <path d="m21 21-4.34-4.34"></path>
      <circle cx="11" cy="11" r="8"></circle>
    </symbol>
    <symbol id="icon-eye" viewBox="0 0 24 24">
      <path d="M2.062 12.348a1 1 0 0 1 0-.696 10.75 10.75 0 0 1 19.876 0 1 1 0 0 1 0 .696 10.75 10.75 0 0 1-19.876 0"></path>
      <circle cx="12" cy="12" r="3"></circle>
    </symbol>
    <symbol id="icon-eye-off" viewBox="0 0 24 24">
      <path d="M10.733 5.076a10.744 10.744 0 0 1 11.205 6.575 1 1 0 0 1 0 .696 10.747 10.747 0 0 1-1.444 2.49"></path>
      <path d="M14.084 14.158a3 3 0 0 1-4.242-4.242"></path>
      <path d="M17.479 17.499a10.75 10.75 0 0 1-15.417-5.151 1 1 0 0 1 0-.696 10.75 10.75 0 0 1 4.446-5.143"></path>
      <path d="m2 2 20 20"></path>
    </symbol>
    <symbol id="icon-panel" viewBox="0 0 24 24">
      <rect width="18" height="18" x="3" y="3" rx="2"></rect>
      <path d="M9 3v18"></path>
    </symbol>
    <symbol id="icon-filter" viewBox="0 0 24 24">
      <path d="M10 20a1 1 0 0 0 .553.895l2 1A1 1 0 0 0 14 21v-7a2 2 0 0 1 .517-1.341L21.74 4.67A1 1 0 0 0 21 3H3a1 1 0 0 0-.742 1.67l7.225 7.989A2 2 0 0 1 10 14z"></path>
    </symbol>
    <symbol id="icon-book" viewBox="0 0 24 24">
      <path d="M4 19.5v-15A2.5 2.5 0 0 1 6.5 2H19a1 1 0 0 1 1 1v18a1 1 0 0 1-1 1H6.5a1 1 0 0 1 0-5H20"></path>
    </symbol>
    <symbol id="icon-clapperboard" viewBox="0 0 24 24">
      <path d="M20.2 6 3 11l-.9-2.4c-.3-1.1.3-2.2 1.3-2.5l13.5-4c1.1-.3 2.2.3 2.5 1.3Z"></path>
      <path d="m6.2 5.3 3.1 3.9"></path>
      <path d="m12.4 3.4 3.1 4"></path>
      <path d="M3 11h18v8a2 2 0 0 1-2 2H5a2 2 0 0 1-2-2Z"></path>
    </symbol>
    <symbol id="icon-keyboard" viewBox="0 0 24 24">
      <path d="M10 8h.01"></path>
      <path d="M12 12h.01"></path>
      <path d="M14 8h.01"></path>
      <path d="M16 12h.01"></path>
      <path d="M18 8h.01"></path>
      <path d="M6 8h.01"></path>
      <path d="M7 16h10"></path>
      <path d="M8 12h.01"></path>
      <rect width="20" height="16" x="2" y="4" rx="2"></rect>
    </symbol>
    <symbol id="icon-rotate-ccw" viewBox="0 0 24 24">
      <path d="M3 12a9 9 0 1 0 9-9 9.75 9.75 0 0 0-6.74 2.74L3 8"></path>
      <path d="M3 3v5h5"></path>
    </symbol>
    <symbol id="icon-rotate-cw" viewBox="0 0 24 24">
      <path d="M21 12a9 9 0 1 1-9-9c2.52 0 4.93 1 6.74 2.74L21 8"></path>
      <path d="M21 3v5h-5"></path>
    </symbol>
    <symbol id="icon-list" viewBox="0 0 24 24">
      <path d="M3 5h.01"></path>
      <path d="M3 12h.01"></path>
      <path d="M3 19h.01"></path>
      <path d="M8 5h13"></path>
      <path d="M8 12h13"></path>
      <path d="M8 19h13"></path>
    </symbol>
    <symbol id="icon-tool" viewBox="0 0 24 24">
      <path d="M14.7 6.3a1 1 0 0 0 0 1.4l1.6 1.6a1 1 0 0 0 1.4 0l3.106-3.105c.32-.322.863-.22.983.218a6 6 0 0 1-8.259 7.057l-7.91 7.91a1 1 0 0 1-2.999-3l7.91-7.91a6 6 0 0 1 7.057-8.259c.438.12.54.662.219.984z"></path>
    </symbol>
  </defs>
</svg>
